{
"scenes" : [
{
   "nodes" : [0,1,2,3,4,5,6,7,8,9,10,11,12,13,14,15,16]
}
],

"nodes" : [
{
   "mesh" : 0
}
,{
   "mesh" : 1
}
,{
   "mesh" : 2
}
,{
   "mesh" : 3
}
,{
   "mesh" : 4
}
,{
   "mesh" : 5
}
,{
   "mesh" : 6
}
,{
   "mesh" : 7
}
,{
   "mesh" : 8
}
,{
   "mesh" : 9
}
,{
   "mesh" : 10
}
,{
   "mesh" : 11
}
,{
   "mesh" : 12
}
,{
   "mesh" : 13
}
,{
   "mesh" : 14
}
,{
   "mesh" : 15
}
,{
   "mesh" : 16
}
],
"meshes" : [
{
   "primitives" : [ {
        "indices" : 0,
       "attributes" : {
           "POSITION" : 1
,           "TEXCOORD_0" : 2
       },
       "material" : 0
   } ],
   "extras": {
     "NBound": "46.890231573593994",
     "SBound": "46.87521339672269",
     "Tile_X": "8627",
     "Tile_Z": "14",
     "Tile_Y": "5770",
     "cellWidth_LonMeters": "64.32338018145195",
     "cellWidth_LatMeters": "92.87865566425339",
     "WBound": "9.55810546875",
     "Distance1DegreeLatitude": "111319.49079327358",
     "EBound": "9.580078125",
     "Distance1DegreeLongitude": "76113.14106448785"}
}
,{
   "primitives" : [ {
        "indices" : 3,
       "attributes" : {
           "POSITION" : 4
       }
   } ],
   "extras": {
}
}
,{
   "primitives" : [ {
        "indices" : 5,
       "attributes" : {
           "POSITION" : 6
,           "TEXCOORD_0" : 7
       },
       "material" : 1
   } ],
   "extras": {
     "NBound": "46.87521339672269",
     "SBound": "46.86019101567025",
     "Tile_X": "8627",
     "Tile_Z": "14",
     "Tile_Y": "5771",
     "cellWidth_LonMeters": "64.32338018145195",
     "cellWidth_LatMeters": "92.90465607000462",
     "WBound": "9.55810546875",
     "Distance1DegreeLatitude": "111319.49079327358",
     "EBound": "9.580078125",
     "Distance1DegreeLongitude": "76113.14106448785"}
}
,{
   "primitives" : [ {
        "indices" : 8,
       "attributes" : {
           "POSITION" : 9
       }
   } ],
   "extras": {
}
}
,{
   "primitives" : [ {
        "indices" : 10,
       "attributes" : {
           "POSITION" : 11
,           "TEXCOORD_0" : 12
       },
       "material" : 2
   } ],
   "extras": {
     "NBound": "46.86019101567025",
     "SBound": "46.845164430292776",
     "Tile_X": "8627",
     "Tile_Z": "14",
     "Tile_Y": "5772",
     "cellWidth_LonMeters": "64.32338018145195",
     "cellWidth_LatMeters": "92.93065736568786",
     "WBound": "9.55810546875",
     "Distance1DegreeLatitude": "111319.49079327358",
     "EBound": "9.580078125",
     "Distance1DegreeLongitude": "76113.14106448785"}
}
,{
   "primitives" : [ {
        "indices" : 13,
       "attributes" : {
           "POSITION" : 14
       }
   } ],
   "extras": {
}
}
,{
   "primitives" : [ {
        "indices" : 15,
       "attributes" : {
           "POSITION" : 16
,           "TEXCOORD_0" : 17
       },
       "material" : 3
   } ],
   "extras": {
     "NBound": "46.890231573593994",
     "SBound": "46.87521339672269",
     "Tile_X": "8628",
     "Tile_Z": "14",
     "Tile_Y": "5770",
     "cellWidth_LonMeters": "61.941032767324096",
     "cellWidth_LatMeters": "92.87865566425339",
     "WBound": "9.580078125",
     "Distance1DegreeLatitude": "111319.49079327358",
     "EBound": "9.60205078125",
     "Distance1DegreeLongitude": "76113.14106448785"}
}
,{
   "primitives" : [ {
        "indices" : 18,
       "attributes" : {
           "POSITION" : 19
       }
   } ],
   "extras": {
}
}
,{
   "primitives" : [ {
        "indices" : 20,
       "attributes" : {
           "POSITION" : 21
,           "TEXCOORD_0" : 22
       },
       "material" : 4
   } ],
   "extras": {
     "NBound": "46.87521339672269",
     "SBound": "46.86019101567025",
     "Tile_X": "8628",
     "Tile_Z": "14",
     "Tile_Y": "5771",
     "cellWidth_LonMeters": "61.941032767324096",
     "cellWidth_LatMeters": "92.90465607000462",
     "WBound": "9.580078125",
     "Distance1DegreeLatitude": "111319.49079327358",
     "EBound": "9.60205078125",
     "Distance1DegreeLongitude": "76113.14106448785"}
}
,{
   "primitives" : [ {
        "indices" : 23,
       "attributes" : {
           "POSITION" : 24
,           "TEXCOORD_0" : 25
       },
       "material" : 5
   } ],
   "extras": {
     "NBound": "46.86019101567025",
     "SBound": "46.845164430292776",
     "Tile_X": "8628",
     "Tile_Z": "14",
     "Tile_Y": "5772",
     "cellWidth_LonMeters": "61.941032767324096",
     "cellWidth_LatMeters": "92.93065736568786",
     "WBound": "9.580078125",
     "Distance1DegreeLatitude": "111319.49079327358",
     "EBound": "9.60205078125",
     "Distance1DegreeLongitude": "76113.14106448785"}
}
,{
   "primitives" : [ {
        "indices" : 26,
       "attributes" : {
           "POSITION" : 27
       }
   } ],
   "extras": {
}
}
,{
   "primitives" : [ {
        "indices" : 28,
       "attributes" : {
           "POSITION" : 29
,           "TEXCOORD_0" : 30
       },
       "material" : 6
   } ],
   "extras": {
     "NBound": "46.890231573593994",
     "SBound": "46.87521339672269",
     "Tile_X": "8629",
     "Tile_Z": "14",
     "Tile_Y": "5770",
     "cellWidth_LonMeters": "64.32338018145195",
     "cellWidth_LatMeters": "92.87865566425339",
     "WBound": "9.60205078125",
     "Distance1DegreeLatitude": "111319.49079327358",
     "EBound": "9.6240234375",
     "Distance1DegreeLongitude": "76113.14106448785"}
}
,{
   "primitives" : [ {
        "indices" : 31,
       "attributes" : {
           "POSITION" : 32
       }
   } ],
   "extras": {
}
}
,{
   "primitives" : [ {
        "indices" : 33,
       "attributes" : {
           "POSITION" : 34
,           "TEXCOORD_0" : 35
       },
       "material" : 7
   } ],
   "extras": {
     "NBound": "46.87521339672269",
     "SBound": "46.86019101567025",
     "Tile_X": "8629",
     "Tile_Z": "14",
     "Tile_Y": "5771",
     "cellWidth_LonMeters": "64.32338018145195",
     "cellWidth_LatMeters": "92.90465607000462",
     "WBound": "9.60205078125",
     "Distance1DegreeLatitude": "111319.49079327358",
     "EBound": "9.6240234375",
     "Distance1DegreeLongitude": "76113.14106448785"}
}
,{
   "primitives" : [ {
        "indices" : 36,
       "attributes" : {
           "POSITION" : 37
       }
   } ],
   "extras": {
}
}
,{
   "primitives" : [ {
        "indices" : 38,
       "attributes" : {
           "POSITION" : 39
,           "TEXCOORD_0" : 40
       },
       "material" : 8
   } ],
   "extras": {
     "NBound": "46.86019101567025",
     "SBound": "46.845164430292776",
     "Tile_X": "8629",
     "Tile_Z": "14",
     "Tile_Y": "5772",
     "cellWidth_LonMeters": "64.32338018145195",
     "cellWidth_LatMeters": "92.93065736568786",
     "WBound": "9.60205078125",
     "Distance1DegreeLatitude": "111319.49079327358",
     "EBound": "9.6240234375",
     "Distance1DegreeLongitude": "76113.14106448785"}
}
,{
   "primitives" : [ {
        "indices" : 41,
       "attributes" : {
           "POSITION" : 42
       }
   } ],
   "extras": {
}
}
],

"materials" : [
{
   "pbrMetallicRoughness" : {
     "baseColorTexture" : {
        "index" : 0
      },
     "metallicFactor" : 0.0,
     "roughnessFactor" : 1.0
    }
},{
   "pbrMetallicRoughness" : {
     "baseColorTexture" : {
        "index" : 1
      },
     "metallicFactor" : 0.0,
     "roughnessFactor" : 1.0
    }
},{
   "pbrMetallicRoughness" : {
     "baseColorTexture" : {
        "index" : 2
      },
     "metallicFactor" : 0.0,
     "roughnessFactor" : 1.0
    }
},{
   "pbrMetallicRoughness" : {
     "baseColorTexture" : {
        "index" : 3
      },
     "metallicFactor" : 0.0,
     "roughnessFactor" : 1.0
    }
},{
   "pbrMetallicRoughness" : {
     "baseColorTexture" : {
        "index" : 4
      },
     "metallicFactor" : 0.0,
     "roughnessFactor" : 1.0
    }
},{
   "pbrMetallicRoughness" : {
     "baseColorTexture" : {
        "index" : 5
      },
     "metallicFactor" : 0.0,
     "roughnessFactor" : 1.0
    }
},{
   "pbrMetallicRoughness" : {
     "baseColorTexture" : {
        "index" : 6
      },
     "metallicFactor" : 0.0,
     "roughnessFactor" : 1.0
    }
},{
   "pbrMetallicRoughness" : {
     "baseColorTexture" : {
        "index" : 7
      },
     "metallicFactor" : 0.0,
     "roughnessFactor" : 1.0
    }
},{
   "pbrMetallicRoughness" : {
     "baseColorTexture" : {
        "index" : 8
      },
     "metallicFactor" : 0.0,
     "roughnessFactor" : 1.0
    }
}],
"textures" : [
{
   "sampler" : 0,
   "source" : 0
},{
   "sampler" : 0,
   "source" : 1
},{
   "sampler" : 0,
   "source" : 2
},{
   "sampler" : 0,
   "source" : 3
},{
   "sampler" : 0,
   "source" : 4
},{
   "sampler" : 0,
   "source" : 5
},{
   "sampler" : 0,
   "source" : 6
},{
   "sampler" : 0,
   "source" : 7
},{
   "sampler" : 0,
   "source" : 8
}],
"images" : [
{
   "uri" : "https://api.maptiler.com/maps/ch-swisstopo-lbm/14/8627/5770.png?key=Nq5vDCKAnSrurDLNgtSI"
},{
   "uri" : "https://api.maptiler.com/maps/ch-swisstopo-lbm/14/8627/5771.png?key=Nq5vDCKAnSrurDLNgtSI"
},{
   "uri" : "https://api.maptiler.com/maps/ch-swisstopo-lbm/14/8627/5772.png?key=Nq5vDCKAnSrurDLNgtSI"
},{
   "uri" : "https://api.maptiler.com/maps/ch-swisstopo-lbm/14/8628/5770.png?key=Nq5vDCKAnSrurDLNgtSI"
},{
   "uri" : "https://api.maptiler.com/maps/ch-swisstopo-lbm/14/8628/5771.png?key=Nq5vDCKAnSrurDLNgtSI"
},{
   "uri" : "https://api.maptiler.com/maps/ch-swisstopo-lbm/14/8628/5772.png?key=Nq5vDCKAnSrurDLNgtSI"
},{
   "uri" : "https://api.maptiler.com/maps/ch-swisstopo-lbm/14/8629/5770.png?key=Nq5vDCKAnSrurDLNgtSI"
},{
   "uri" : "https://api.maptiler.com/maps/ch-swisstopo-lbm/14/8629/5771.png?key=Nq5vDCKAnSrurDLNgtSI"
},{
   "uri" : "https://api.maptiler.com/maps/ch-swisstopo-lbm/14/8629/5772.png?key=Nq5vDCKAnSrurDLNgtSI"
}],
"samplers" : [
{
    "magFilter" : 9729,
    "minFilter" : 9987,
    "wrapS" : 33648,
    "wrapT" : 33648
}],

"buffers" : [
{
   "uri" : "data:application/octet-stream;base64,",
   "byteLength" : 11232
},
{
   "uri" : "data:application/octet-stream;base64,",
   "byteLength" : 6156
},
{
   "uri" : "data:application/octet-stream;base64,",
   "byteLength" : 4104
}
,{
   "uri" : "data:application/octet-stream;base64,",
   "byteLength" : 2184
},
{
   "uri" : "data:application/octet-stream;base64,",
   "byteLength" : 2208
},{
   "uri" : "data:application/octet-stream;base64,",
   "byteLength" : 11232
},
{
   "uri" : "data:application/octet-stream;base64,",
   "byteLength" : 6156
},
{
   "uri" : "data:application/octet-stream;base64,",
   "byteLength" : 4104
}
,{
   "uri" : "data:application/octet-stream;base64,",
   "byteLength" : 2184
},
{
   "uri" : "data:application/octet-stream;base64,",
   "byteLength" : 2208
},{
   "uri" : "data:application/octet-stream;base64,",
   "byteLength" : 11232
},
{
   "uri" : "data:application/octet-stream;base64,",
   "byteLength" : 6156
},
{
   "uri" : "data:application/octet-stream;base64,",
   "byteLength" : 4104
}
,{
   "uri" : "data:application/octet-stream;base64,",
   "byteLength" : 2184
},
{
   "uri" : "data:application/octet-stream;base64,",
   "byteLength" : 2208
},{
   "uri" : "data:application/octet-stream;base64,",
   "byteLength" : 11664
},
{
   "uri" : "data:application/octet-stream;base64,",
   "byteLength" : 6384
},
{
   "uri" : "data:application/octet-stream;base64,",
   "byteLength" : 4257
}
,{
   "uri" : "data:application/octet-stream;base64,",
   "byteLength" : 2232
},
{
   "uri" : "data:application/octet-stream;base64,",
   "byteLength" : 2256
},{
   "uri" : "data:application/octet-stream;base64,",
   "byteLength" : 11664
},
{
   "uri" : "data:application/octet-stream;base64,",
   "byteLength" : 6384
},
{
   "uri" : "data:application/octet-stream;base64,",
   "byteLength" : 4257
}
,{
   "uri" : "data:application/octet-stream;base64,",
   "byteLength" : 11664
},
{
   "uri" : "data:application/octet-stream;base64,",
   "byteLength" : 6384
},
{
   "uri" : "data:application/octet-stream;base64,",
   "byteLength" : 4257
}
,{
   "uri" : "data:application/octet-stream;base64,",
   "byteLength" : 2232
},
{
   "uri" : "data:application/octet-stream;base64,",
   "byteLength" : 2256
},{
   "uri" : "data:application/octet-stream;base64,",
   "byteLength" : 11232
},
{
   "uri" : "data:application/octet-stream;base64,",
   "byteLength" : 6156
},
{
   "uri" : "data:application/octet-stream;base64,",
   "byteLength" : 4104
}
,{
   "uri" : "data:application/octet-stream;base64,",
   "byteLength" : 2184
},
{
   "uri" : "data:application/octet-stream;base64,",
   "byteLength" : 2208
},{
   "uri" : "data:application/octet-stream;base64,",
   "byteLength" : 11232
},
{
   "uri" : "data:application/octet-stream;base64,",
   "byteLength" : 6156
},
{
   "uri" : "data:application/octet-stream;base64,",
   "byteLength" : 4104
}
,{
   "uri" : "data:application/octet-stream;base64,",
   "byteLength" : 2184
},
{
   "uri" : "data:application/octet-stream;base64,",
   "byteLength" : 2208
},{
   "uri" : "data:application/octet-stream;base64,",
   "byteLength" : 11232
},
{
   "uri" : "data:application/octet-stream;base64,",
   "byteLength" : 6156
},
{
   "uri" : "data:application/octet-stream;base64,",
   "byteLength" : 4104
}
,{
   "uri" : "data:application/octet-stream;base64,",
   "byteLength" : 2184
},
{
   "uri" : "data:application/octet-stream;base64,",
   "byteLength" : 2208
}],
"bufferViews" : [
{
   "buffer" : 0,
   "byteOffset" : 0,
   "byteLength" : 11232,
   "target" : 34963
},
{
   "buffer" : 1,
   "byteOffset" : 0,
   "byteLength" : 6156,
   "target" : 34962
},
{
   "buffer" : 2,
   "byteOffset" : 0,
   "byteLength" : 4104,
   "target" : 34962
}
,{
   "buffer" : 3,
   "byteOffset" : 0,
   "byteLength" : 2184,
   "target" : 34963
},
{
   "buffer" : 4,
   "byteOffset" : 0,
   "byteLength" : 2208,
   "target" : 34962
},{
   "buffer" : 5,
   "byteOffset" : 0,
   "byteLength" : 11232,
   "target" : 34963
},
{
   "buffer" : 6,
   "byteOffset" : 0,
   "byteLength" : 6156,
   "target" : 34962
},
{
   "buffer" : 7,
   "byteOffset" : 0,
   "byteLength" : 4104,
   "target" : 34962
}
,{
   "buffer" : 8,
   "byteOffset" : 0,
   "byteLength" : 2184,
   "target" : 34963
},
{
   "buffer" : 9,
   "byteOffset" : 0,
   "byteLength" : 2208,
   "target" : 34962
},{
   "buffer" : 10,
   "byteOffset" : 0,
   "byteLength" : 11232,
   "target" : 34963
},
{
   "buffer" : 11,
   "byteOffset" : 0,
   "byteLength" : 6156,
   "target" : 34962
},
{
   "buffer" : 12,
   "byteOffset" : 0,
   "byteLength" : 4104,
   "target" : 34962
}
,{
   "buffer" : 13,
   "byteOffset" : 0,
   "byteLength" : 2184,
   "target" : 34963
},
{
   "buffer" : 14,
   "byteOffset" : 0,
   "byteLength" : 2208,
   "target" : 34962
},{
   "buffer" : 15,
   "byteOffset" : 0,
   "byteLength" : 11664,
   "target" : 34963
},
{
   "buffer" : 16,
   "byteOffset" : 0,
   "byteLength" : 6384,
   "target" : 34962
},
{
   "buffer" : 17,
   "byteOffset" : 0,
   "byteLength" : 4256,
   "target" : 34962
}
,{
   "buffer" : 18,
   "byteOffset" : 0,
   "byteLength" : 2232,
   "target" : 34963
},
{
   "buffer" : 19,
   "byteOffset" : 0,
   "byteLength" : 2256,
   "target" : 34962
},{
   "buffer" : 20,
   "byteOffset" : 0,
   "byteLength" : 11664,
   "target" : 34963
},
{
   "buffer" : 21,
   "byteOffset" : 0,
   "byteLength" : 6384,
   "target" : 34962
},
{
   "buffer" : 22,
   "byteOffset" : 0,
   "byteLength" : 4256,
   "target" : 34962
}
,{
   "buffer" : 23,
   "byteOffset" : 0,
   "byteLength" : 11664,
   "target" : 34963
},
{
   "buffer" : 24,
   "byteOffset" : 0,
   "byteLength" : 6384,
   "target" : 34962
},
{
   "buffer" : 25,
   "byteOffset" : 0,
   "byteLength" : 4256,
   "target" : 34962
}
,{
   "buffer" : 26,
   "byteOffset" : 0,
   "byteLength" : 2232,
   "target" : 34963
},
{
   "buffer" : 27,
   "byteOffset" : 0,
   "byteLength" : 2256,
   "target" : 34962
},{
   "buffer" : 28,
   "byteOffset" : 0,
   "byteLength" : 11232,
   "target" : 34963
},
{
   "buffer" : 29,
   "byteOffset" : 0,
   "byteLength" : 6156,
   "target" : 34962
},
{
   "buffer" : 30,
   "byteOffset" : 0,
   "byteLength" : 4104,
   "target" : 34962
}
,{
   "buffer" : 31,
   "byteOffset" : 0,
   "byteLength" : 2184,
   "target" : 34963
},
{
   "buffer" : 32,
   "byteOffset" : 0,
   "byteLength" : 2208,
   "target" : 34962
},{
   "buffer" : 33,
   "byteOffset" : 0,
   "byteLength" : 11232,
   "target" : 34963
},
{
   "buffer" : 34,
   "byteOffset" : 0,
   "byteLength" : 6156,
   "target" : 34962
},
{
   "buffer" : 35,
   "byteOffset" : 0,
   "byteLength" : 4104,
   "target" : 34962
}
,{
   "buffer" : 36,
   "byteOffset" : 0,
   "byteLength" : 2184,
   "target" : 34963
},
{
   "buffer" : 37,
   "byteOffset" : 0,
   "byteLength" : 2208,
   "target" : 34962
},{
   "buffer" : 38,
   "byteOffset" : 0,
   "byteLength" : 11232,
   "target" : 34963
},
{
   "buffer" : 39,
   "byteOffset" : 0,
   "byteLength" : 6156,
   "target" : 34962
},
{
   "buffer" : 40,
   "byteOffset" : 0,
   "byteLength" : 4104,
   "target" : 34962
}
,{
   "buffer" : 41,
   "byteOffset" : 0,
   "byteLength" : 2184,
   "target" : 34963
},
{
   "buffer" : 42,
   "byteOffset" : 0,
   "byteLength" : 2208,
   "target" : 34962
}],
"accessors" : [
{
   "bufferView" : 0,
   "byteOffset" : 0,
   "componentType" : 5125,
   "count" : 2808,
   "type" : "SCALAR",
   "max" : [ 512 ],
   "min" : [ 0 ]
},
{
   "bufferView" : 1,
   "byteOffset" : 0,
   "componentType" : 5126,
   "count" : 513,
   "type" : "VEC3",
   "max" : [ 0.29512548, 0.1303, -0.07856305 ],
   "min" : [ 0.1279439, 0.0672, -0.24580383 ]
},
{
   "bufferView" : 2,
   "byteOffset" : 0,
   "componentType" : 5126,
   "count" : 513,
   "type" : "VEC2",
   "max" : [ 1, 1 ],
   "min" : [ 0, 0 ]
}
,{
   "bufferView" : 3,
   "byteOffset" : 0,
   "componentType" : 5125,
   "count" : 546,
   "type" : "SCALAR",
   "max" : [ 183 ],
   "min" : [ 0 ]
},
{
   "bufferView" : 4,
   "byteOffset" : 0,
   "componentType" : 5126,
   "count" : 184,
   "type" : "VEC3",
   "max" : [ 0.29512548, 0.1303, -0.07856305 ],
   "min" : [ 0.1279439, 0.0, -0.24580383 ]
},{
   "bufferView" : 5,
   "byteOffset" : 0,
   "componentType" : 5125,
   "count" : 2808,
   "type" : "SCALAR",
   "max" : [ 512 ],
   "min" : [ 0 ]
},
{
   "bufferView" : 6,
   "byteOffset" : 0,
   "componentType" : 5126,
   "count" : 513,
   "type" : "VEC3",
   "max" : [ 0.1279439, 0.1705, -0.07856305 ],
   "min" : [ -0.03928447, 0.0799, -0.24580383 ]
},
{
   "bufferView" : 7,
   "byteOffset" : 0,
   "componentType" : 5126,
   "count" : 513,
   "type" : "VEC2",
   "max" : [ 1, 1 ],
   "min" : [ 0, 0 ]
}
,{
   "bufferView" : 8,
   "byteOffset" : 0,
   "componentType" : 5125,
   "count" : 546,
   "type" : "SCALAR",
   "max" : [ 183 ],
   "min" : [ 0 ]
},
{
   "bufferView" : 9,
   "byteOffset" : 0,
   "componentType" : 5126,
   "count" : 184,
   "type" : "VEC3",
   "max" : [ 0.1279439, 0.1705, -0.07856305 ],
   "min" : [ -0.03928447, 0.0, -0.24580383 ]
},{
   "bufferView" : 10,
   "byteOffset" : 0,
   "componentType" : 5125,
   "count" : 2808,
   "type" : "SCALAR",
   "max" : [ 512 ],
   "min" : [ 0 ]
},
{
   "bufferView" : 11,
   "byteOffset" : 0,
   "componentType" : 5126,
   "count" : 513,
   "type" : "VEC3",
   "max" : [ -0.03928447, 0.1882, -0.07856305 ],
   "min" : [ -0.20655966, 0.0941, -0.24580383 ]
},
{
   "bufferView" : 12,
   "byteOffset" : 0,
   "componentType" : 5126,
   "count" : 513,
   "type" : "VEC2",
   "max" : [ 1, 1 ],
   "min" : [ 0, 0 ]
}
,{
   "bufferView" : 13,
   "byteOffset" : 0,
   "componentType" : 5125,
   "count" : 546,
   "type" : "SCALAR",
   "max" : [ 183 ],
   "min" : [ 0 ]
},
{
   "bufferView" : 14,
   "byteOffset" : 0,
   "componentType" : 5126,
   "count" : 184,
   "type" : "VEC3",
   "max" : [ -0.03928447, 0.1882, -0.07856305 ],
   "min" : [ -0.20655966, 0.0, -0.24580383 ]
},{
   "bufferView" : 15,
   "byteOffset" : 0,
   "componentType" : 5125,
   "count" : 2916,
   "type" : "SCALAR",
   "max" : [ 531 ],
   "min" : [ 0 ]
},
{
   "bufferView" : 16,
   "byteOffset" : 0,
   "componentType" : 5126,
   "count" : 532,
   "type" : "VEC3",
   "max" : [ 0.29512548, 0.2004, 0.08867775 ],
   "min" : [ 0.1279439, 0.106699996, -0.07856303 ]
},
{
   "bufferView" : 17,
   "byteOffset" : 0,
   "componentType" : 5126,
   "count" : 532,
   "type" : "VEC2",
   "max" : [ 1, 1 ],
   "min" : [ 0, 0 ]
}
,{
   "bufferView" : 18,
   "byteOffset" : 0,
   "componentType" : 5125,
   "count" : 558,
   "type" : "SCALAR",
   "max" : [ 187 ],
   "min" : [ 0 ]
},
{
   "bufferView" : 19,
   "byteOffset" : 0,
   "componentType" : 5126,
   "count" : 188,
   "type" : "VEC3",
   "max" : [ 0.29512548, 0.2004, 0.08867775 ],
   "min" : [ 0.1279439, 0.0, -0.07856303 ]
},{
   "bufferView" : 20,
   "byteOffset" : 0,
   "componentType" : 5125,
   "count" : 2916,
   "type" : "SCALAR",
   "max" : [ 531 ],
   "min" : [ 0 ]
},
{
   "bufferView" : 21,
   "byteOffset" : 0,
   "componentType" : 5126,
   "count" : 532,
   "type" : "VEC3",
   "max" : [ 0.1279439, 0.22469999, 0.08867775 ],
   "min" : [ -0.03928447, 0.113299996, -0.07856303 ]
},
{
   "bufferView" : 22,
   "byteOffset" : 0,
   "componentType" : 5126,
   "count" : 532,
   "type" : "VEC2",
   "max" : [ 1, 1 ],
   "min" : [ 0, 0 ]
}
,{
   "bufferView" : 23,
   "byteOffset" : 0,
   "componentType" : 5125,
   "count" : 2916,
   "type" : "SCALAR",
   "max" : [ 531 ],
   "min" : [ 0 ]
},
{
   "bufferView" : 24,
   "byteOffset" : 0,
   "componentType" : 5126,
   "count" : 532,
   "type" : "VEC3",
   "max" : [ -0.03928447, 0.2131, 0.08867775 ],
   "min" : [ -0.20655966, 0.1213, -0.07856303 ]
},
{
   "bufferView" : 25,
   "byteOffset" : 0,
   "componentType" : 5126,
   "count" : 532,
   "type" : "VEC2",
   "max" : [ 1, 1 ],
   "min" : [ 0, 0 ]
}
,{
   "bufferView" : 26,
   "byteOffset" : 0,
   "componentType" : 5125,
   "count" : 558,
   "type" : "SCALAR",
   "max" : [ 187 ],
   "min" : [ 0 ]
},
{
   "bufferView" : 27,
   "byteOffset" : 0,
   "componentType" : 5126,
   "count" : 188,
   "type" : "VEC3",
   "max" : [ -0.03928447, 0.2131, 0.08867775 ],
   "min" : [ -0.20655966, 0.0, -0.07856303 ]
},{
   "bufferView" : 28,
   "byteOffset" : 0,
   "componentType" : 5125,
   "count" : 2808,
   "type" : "SCALAR",
   "max" : [ 512 ],
   "min" : [ 0 ]
},
{
   "bufferView" : 29,
   "byteOffset" : 0,
   "componentType" : 5126,
   "count" : 513,
   "type" : "VEC3",
   "max" : [ 0.29512548, 0.2144, 0.25591853 ],
   "min" : [ 0.1279439, 0.145, 0.08867775 ]
},
{
   "bufferView" : 30,
   "byteOffset" : 0,
   "componentType" : 5126,
   "count" : 513,
   "type" : "VEC2",
   "max" : [ 1, 1 ],
   "min" : [ 0, 0 ]
}
,{
   "bufferView" : 31,
   "byteOffset" : 0,
   "componentType" : 5125,
   "count" : 546,
   "type" : "SCALAR",
   "max" : [ 183 ],
   "min" : [ 0 ]
},
{
   "bufferView" : 32,
   "byteOffset" : 0,
   "componentType" : 5126,
   "count" : 184,
   "type" : "VEC3",
   "max" : [ 0.29512548, 0.2144, 0.25591853 ],
   "min" : [ 0.1279439, 0.0, 0.08867775 ]
},{
   "bufferView" : 33,
   "byteOffset" : 0,
   "componentType" : 5125,
   "count" : 2808,
   "type" : "SCALAR",
   "max" : [ 512 ],
   "min" : [ 0 ]
},
{
   "bufferView" : 34,
   "byteOffset" : 0,
   "componentType" : 5126,
   "count" : 513,
   "type" : "VEC3",
   "max" : [ 0.1279439, 0.2444, 0.25591853 ],
   "min" : [ -0.03928447, 0.1815, 0.08867775 ]
},
{
   "bufferView" : 35,
   "byteOffset" : 0,
   "componentType" : 5126,
   "count" : 513,
   "type" : "VEC2",
   "max" : [ 1, 1 ],
   "min" : [ 0, 0 ]
}
,{
   "bufferView" : 36,
   "byteOffset" : 0,
   "componentType" : 5125,
   "count" : 546,
   "type" : "SCALAR",
   "max" : [ 183 ],
   "min" : [ 0 ]
},
{
   "bufferView" : 37,
   "byteOffset" : 0,
   "componentType" : 5126,
   "count" : 184,
   "type" : "VEC3",
   "max" : [ 0.1279439, 0.2444, 0.25591853 ],
   "min" : [ -0.03928447, 0.0, 0.08867775 ]
},{
   "bufferView" : 38,
   "byteOffset" : 0,
   "componentType" : 5125,
   "count" : 2808,
   "type" : "SCALAR",
   "max" : [ 512 ],
   "min" : [ 0 ]
},
{
   "bufferView" : 39,
   "byteOffset" : 0,
   "componentType" : 5126,
   "count" : 513,
   "type" : "VEC3",
   "max" : [ -0.03928447, 0.2156, 0.25591853 ],
   "min" : [ -0.20655966, 0.1267, 0.08867775 ]
},
{
   "bufferView" : 40,
   "byteOffset" : 0,
   "componentType" : 5126,
   "count" : 513,
   "type" : "VEC2",
   "max" : [ 1, 1 ],
   "min" : [ 0, 0 ]
}
,{
   "bufferView" : 41,
   "byteOffset" : 0,
   "componentType" : 5125,
   "count" : 546,
   "type" : "SCALAR",
   "max" : [ 183 ],
   "min" : [ 0 ]
},
{
   "bufferView" : 42,
   "byteOffset" : 0,
   "componentType" : 5126,
   "count" : 184,
   "type" : "VEC3",
   "max" : [ -0.03928447, 0.2156, 0.25591853 ],
   "min" : [ -0.20655966, 0.0, 0.08867775 ]
}],

"asset" : {
"version" : "2.0"
}
}